<?xml version="1.0"?>
<svg id="Layer_1" data-name="Layer 1" xmlns="http://www.w3.org/2000/svg" viewBox="0 0 213.54 60">
  <defs>
    
  </defs>
  <g>
    <path class="cls-1" d="M50.97,48.65v-17.46c0-1.53-.82-2.95-2.14-3.71l-3.79-2.19v21.33c0,3.38-1.8,6.51-4.73,8.2l-5.88,3.4c-4.11,2.38-9.19,2.38-13.3,0L2.58,47.52C.99,46.6,0,44.9,0,43.07v-2.29l23.98,13.84c2.34,1.35,5.22,1.35,7.56,0l6.84-3.96c1.3-.75,2.09-2.13,2.09-3.63v-21.49c0-1.78-.95-3.42-2.49-4.31l-5.56-3.21c-2.86-1.65-6.39-1.66-9.27-.03l-3.56,2.03v-4.44c0-.51.27-.98.71-1.24l1.72-.99c3.54-2.04,7.91-2.04,11.45,0l19.14,11.05c1.79,1.04,2.9,2.95,2.9,5.02v13.63c0,1.83-.97,3.52-2.56,4.43l-2,1.15Z"></path>
    <path class="cls-1" d="M35.92,26.25v7.46c0,.61-.32,1.16-.85,1.47l-4.77,2.75c-1.13.65-2.54-.16-2.54-1.47v-5.51c0-.61-.32-1.16-.85-1.47l-4.76-2.75c-1.13-.65-1.13-2.28,0-2.93l4.77-2.75c.52-.3,1.17-.3,1.69,0l6.46,3.73c.52.3.85.86.85,1.47Z"></path>
    <path class="cls-1" d="M55.53,16.94v2.28S31.53,5.39,31.53,5.39c-2.34-1.35-5.22-1.35-7.56,0l-6.83,3.95c-1.3.75-2.09,2.13-2.09,3.63v21.51c0,1.78.95,3.42,2.49,4.31l5.57,3.22c2.88,1.66,6.43,1.66,9.31,0l3.51-2.02v4.43c0,.51-.27.98-.71,1.23l-1.71.99c-3.54,2.05-7.91,2.05-11.46,0L2.91,35.6C1.11,34.56,0,32.65,0,30.58v-13.65c0-1.83.97-3.52,2.55-4.43l1.99-1.15v17.46c0,1.53.82,2.95,2.15,3.72l3.79,2.19V13.39c0-3.38,1.8-6.51,4.73-8.2l5.88-3.4c4.12-2.38,9.19-2.38,13.3,0l18.54,10.7c1.6.92,2.58,2.62,2.57,4.47Z"></path>
    <path class="cls-1" d="M25.36,32.86v2.74c0,1.3-1.41,2.12-2.54,1.47l-2.36-1.36c-.52-.3-.85-.86-.85-1.47v-2.7c0-1.3,1.4-2.11,2.53-1.48l2.36,1.33c.53.3.86.86.86,1.48Z"></path>
  </g>
  <g>
    <path class="cls-2" d="M82.47,37.17c-.9.37-1.95.55-3.16.55-1.03,0-1.98-.17-2.83-.52-.85-.35-1.59-.85-2.22-1.51-.63-.66-1.11-1.45-1.45-2.36-.34-.91-.5-1.92-.5-3.05s.17-2.07.5-3c.34-.92.82-1.71,1.45-2.36s1.37-1.15,2.22-1.5,1.8-.52,2.83-.52c1.17,0,2.19.19,3.08.57s1.63.91,2.24,1.58l3.57-3.6c-1.1-1.05-2.38-1.88-3.85-2.49-1.47-.61-3.15-.91-5.03-.91s-3.45.31-4.95.93c-1.5.62-2.82,1.48-3.96,2.57s-2.01,2.4-2.64,3.89c-.63,1.49-.94,3.1-.94,4.83s.31,3.34.94,4.83c.63,1.49,1.51,2.8,2.64,3.92,1.13,1.12,2.46,1.99,3.97,2.61,1.51.62,3.16.93,4.93.93,1.95,0,3.67-.3,5.15-.89,1.48-.59,2.78-1.43,3.9-2.51l-3.6-3.6c-.63.7-1.39,1.23-2.29,1.6Z"></path>
    <path class="cls-2" d="M103.22,26.58c-1.36-.74-2.88-1.11-4.56-1.11s-3.27.38-4.61,1.13-2.41,1.77-3.18,3.05c-.78,1.28-1.16,2.72-1.16,4.31s.39,3.07,1.18,4.38c.78,1.3,1.85,2.33,3.2,3.1,1.35.76,2.87,1.14,4.58,1.14s3.23-.38,4.58-1.14,2.41-1.79,3.2-3.08c.78-1.29,1.18-2.75,1.18-4.39s-.39-3.04-1.18-4.33c-.79-1.29-1.86-2.31-3.21-3.05ZM101.87,36.02c-.3.6-.74,1.05-1.3,1.36-.56.31-1.2.47-1.92.47s-1.36-.16-1.92-.47c-.56-.32-1-.77-1.31-1.36-.32-.59-.47-1.27-.47-2.04,0-.72.16-1.37.47-1.95.31-.58.75-1.04,1.31-1.36.56-.33,1.2-.49,1.92-.49s1.35.16,1.9.49c.55.32.98.77,1.3,1.35.31.57.47,1.23.47,1.97s-.15,1.44-.45,2.04Z"></path>
    <path class="cls-2" d="M121.6,25.86c-.6-.24-1.28-.35-2.07-.35-1.77,0-3.17.53-4.19,1.58,0,0-.01.02-.02.02v-1.27h-5.18v16.36h5.18v-8.95c0-1.05.25-1.85.76-2.37.51-.53,1.2-.79,2.07-.79.43,0,.81.07,1.14.2s.61.32.81.54l3.06-3.9c-.45-.47-.97-.82-1.56-1.06Z"></path>
    <path class="cls-2" d="M135.38,27.25c-.45-.43-.94-.81-1.53-1.1-.89-.43-1.88-.64-2.98-.64-1.5,0-2.84.37-4.02,1.09-1.18.73-2.11,1.74-2.79,3.03-.68,1.29-1.03,2.75-1.03,4.39s.34,3.09,1.03,4.36c.68,1.27,1.62,2.28,2.81,3.03,1.19.75,2.52,1.13,4,1.13,1.12,0,2.13-.21,3.01-.64.58-.28,1.06-.65,1.5-1.07v1.38h5.08v-16.36h-5.08v1.4ZM134.59,36.78c-.66.72-1.54,1.08-2.64,1.08-.7,0-1.32-.16-1.87-.49-.55-.32-.99-.78-1.31-1.36-.32-.58-.49-1.24-.49-1.99s.16-1.4.49-1.99c.33-.58.76-1.04,1.31-1.36.55-.33,1.17-.49,1.87-.49s1.36.16,1.92.49c.56.32.99.77,1.28,1.35.29.57.44,1.23.44,1.97,0,1.15-.33,2.08-.99,2.79Z"></path>
    <rect class="cls-2" x="144.06" y="17.77" width="5.18" height="24.44"></rect>
    <path class="cls-2" d="M158,29.82c.29-.18.73-.27,1.31-.27s1.23.13,1.87.39c.64.26,1.22.69,1.73,1.3l2.93-3c-.72-.94-1.67-1.65-2.86-2.14-1.19-.48-2.47-.72-3.84-.72s-2.55.22-3.53.67c-.99.45-1.75,1.06-2.29,1.83-.54.77-.81,1.69-.81,2.74s.19,1.83.57,2.46c.38.63.88,1.12,1.48,1.48.61.36,1.24.65,1.92.86.67.21,1.32.4,1.94.57.62.17,1.12.35,1.5.54.38.19.57.49.57.89,0,.34-.16.6-.49.77-.33.18-.77.27-1.33.27-.9,0-1.71-.16-2.44-.49-.73-.33-1.37-.78-1.94-1.36l-2.96,2.96c.58.61,1.27,1.14,2.05,1.6.78.46,1.65.82,2.59,1.08s1.9.39,2.86.39c2.04,0,3.66-.48,4.86-1.43,1.2-.95,1.8-2.23,1.8-3.82,0-1.03-.19-1.87-.57-2.51-.38-.64-.88-1.16-1.48-1.55-.61-.39-1.24-.69-1.92-.91-.67-.21-1.31-.4-1.9-.56-.6-.16-1.09-.34-1.48-.54-.39-.2-.59-.47-.59-.81,0-.29.15-.53.44-.71Z"></path>
    <path class="cls-2" d="M180.74,26.58c-1.36-.74-2.88-1.11-4.56-1.11s-3.27.38-4.61,1.13-2.41,1.77-3.18,3.05c-.78,1.28-1.16,2.72-1.16,4.31s.39,3.07,1.18,4.38c.78,1.3,1.85,2.33,3.2,3.1s2.87,1.14,4.58,1.14,3.23-.38,4.58-1.14,2.41-1.79,3.2-3.08c.78-1.29,1.18-2.75,1.18-4.39s-.39-3.04-1.18-4.33c-.79-1.29-1.86-2.31-3.21-3.05ZM179.39,36.02c-.3.6-.74,1.05-1.3,1.36-.56.31-1.2.47-1.92.47s-1.36-.16-1.92-.47c-.56-.32-1-.77-1.31-1.36-.32-.59-.47-1.27-.47-2.04,0-.72.16-1.37.47-1.95.31-.58.75-1.04,1.31-1.36.56-.33,1.2-.49,1.92-.49s1.35.16,1.9.49c.55.32.98.77,1.3,1.35.31.57.47,1.23.47,1.97s-.15,1.44-.45,2.04Z"></path>
    <path class="cls-2" d="M213.54,25.84h-3.7v-6.77h-5.18v6.77h-9.69v-1.55c0-.7.2-1.25.59-1.65.39-.4.95-.61,1.67-.61.38,0,.71.06.98.18.27.12.5.3.71.52l3.27-3.3c-.63-.63-1.36-1.13-2.21-1.51-.84-.38-1.82-.57-2.94-.57-1.46,0-2.74.32-3.84.94-1.1.63-1.94,1.48-2.52,2.54s-.88,2.27-.88,3.62v1.38h-3.63v4.41h3.63v11.95h5.18v-11.95h9.69v11.95h5.18v-11.95h3.7v-4.41Z"></path>
  </g>
</svg>